# xmcd
#
# Track frame offsets: 
#        150
#        17461
#        52303
#        72121
#        88445
#        111912
#        142792
#        163536
#        188471
#        204294
#        221884
#        242535
#        258815
#        275547
#        289589
#
# Disc length: 4200 seconds
#
# Revision: 1
# Processed by: cddbd v1.5.2PL0 Copyright (c) Steve Scherf et al.
# Submitted via: ExactAudioCopy v1.0b3
#
DISCID=d510660f
DTITLE=Billy Jones - Prime Suspect For The Blues 
DYEAR=2001
DGENRE=Blues
TTITLE0=Breakdown
TTITLE1=Marry My Mother-In-Law
TTITLE2=Slip Away
TTITLE3=Come Back Tonight
TTITLE4=Doin' Alright Again
TTITLE5=Let's Straighten It Out
TTITLE6=Ain't Good Lookin'
TTITLE7=Her Daddy's Alligator Farm
TTITLE8=The One For Me
TTITLE9=Be Your Man
TTITLE10=Don't Answer The Door
TTITLE11=Anything You Say
TTITLE12=The Rumor
TTITLE13=Make Love Tonight
TTITLE14=Barnyard Love
EXTD=
EXTT0=
EXTT1=
EXTT2=
EXTT3=
EXTT4=
EXTT5=
EXTT6=
EXTT7=
EXTT8=
EXTT9=
EXTT10=
EXTT11=
EXTT12=
EXTT13=
EXTT14=
PLAYORDER=
